<?xml version="1.0" encoding="UTF-8" standalone="no"?><!DOCTYPE svg PUBLIC "-//W3C//DTD SVG 1.1//EN" "http://www.w3.org/Graphics/SVG/1.1/DTD/svg11.dtd"><svg width="100%" height="100%" viewBox="0 0 32 32" version="1.1" xmlns="http://www.w3.org/2000/svg" xmlns:xlink="http://www.w3.org/1999/xlink" xml:space="preserve" xmlns:serif="http://www.serif.com/" style="fill-rule:evenodd;clip-rule:evenodd;stroke-linecap:round;stroke-linejoin:round;stroke-miterlimit:1.5;"><g><path d="M4.769,13.872c-1.31,-0.97 -2.159,-2.527 -2.159,-4.28c0,-2.938 2.386,-5.324 5.324,-5.324c2.938,0 5.324,2.386 5.324,5.324c0,1.727 -0.824,3.263 -2.1,4.236c2.847,1.705 4.842,5.645 4.842,10.229c0,0.133 -0.002,0.265 -0.005,0.397l-15.99,0c-0.003,-0.131 -0.005,-0.264 -0.005,-0.397c0,-4.544 1.961,-8.456 4.769,-10.185Z" style="fill:#fff;stroke:#000;stroke-width:0.1px;"/><path d="M20.769,13.872c-1.31,-0.97 -2.159,-2.527 -2.159,-4.28c0,-2.938 2.386,-5.324 5.324,-5.324c2.938,0 5.324,2.386 5.324,5.324c0,1.727 -0.824,3.263 -2.1,4.236c2.847,1.705 4.842,5.645 4.842,10.229c0,0.133 -0.002,0.265 -0.005,0.397l-15.99,0c-0.003,-0.131 -0.005,-0.264 -0.005,-0.397c0,-4.544 1.961,-8.456 4.769,-10.185Z" style="fill:#fff;stroke:#000;stroke-width:0.1px;"/><path d="M12.769,17.149c-1.31,-0.97 -2.159,-2.527 -2.159,-4.28c0,-2.938 2.386,-5.323 5.324,-5.323c2.938,0 5.324,2.385 5.324,5.323c0,1.727 -0.824,3.263 -2.1,4.236c2.847,1.705 4.842,5.646 4.842,10.229c0,0.133 -0.002,0.266 -0.005,0.398l-15.99,0c-0.003,-0.132 -0.005,-0.265 -0.005,-0.398c0,-4.544 1.961,-8.456 4.769,-10.185Z" style="fill:#fff;stroke:#000;stroke-width:0.11px;"/></g></svg>